#!OML:ASF I:\Actors\actors\Patient Classification 1\Patient 1\Session 1\Subject1.ASF
:FULLY-SPECIFIED
:DEGREES
266
root -0.576426 17.7324 8.24626 8.80405 -3.64769 -7.63155
lowerback 8.70722 6.88854 12.0803
upperback -9.77877 10.8262 -4.49934
thorax -12.7391 3.71915 -13.7162
lowerneck -16.6685 -6.79851 -4.24413
upperneck 23.5054 -8.63364 0.99293
head 10.5236 -4.22333 -0.154172
rclavicle -2.06736e-014 -7.95139e-015
rhumerus 49.4824 16.1981 -40.4394
rradius 62.4421
rwrist -7.75785
rhand 9.90424 -36.3726
rfingers 7.12502
rthumb 35.0355 -62.9204
lclavicle -2.06736e-014 -7.95139e-015
lhumerus -14.2834 -32.2666 53.5448
lradius 135.103
lwrist -332.511
lhand -10.6257 -26.9532
lfingers 7.12502
lthumb 15.381 2.4547
rfemur -7.43406 20.5094 23.6095
rtibia 9.68286
rfoot -14.0128 -18.589
rtoes -0.367417
lfemur 1.0992 -27.8486 -10.4762
ltibia -0.167092
lfoot -13.7326 40.0693
ltoes 0.278824
267
root -0.613418 17.7444 8.22386 8.87368 -3.7394 -7.6453
lowerback 8.57928 7.36992 12.244
upperback -9.75134 11.4701 -4.67273
thorax -12.3594 4.05783 -14.016
lowerneck -17.0769 -6.85289 -3.50406
upperneck 23.8794 -8.62822 -0.0527455
head 10.6462 -4.27389 -0.660934
rclavicle -1.70955e-014 -7.95139e-015
rhumerus 54.1118 15.4124 -41.9788
rradius 43.2561
rwrist -0.988907
rhand 9.68411 -35.1976
rfingers 7.12502
rthumb 34.8267 -61.794
lclavicle -1.70955e-014 -7.95139e-015
lhumerus -13.8099 -31.8832 51.8121
lradius 135.185
lwrist -330.241
lhand -10.663 -26.1246
lfingers 7.12502
lthumb 15.3451 3.28604
rfemur -7.58912 20.5031 23.6988
rtibia 9.68337
rfoot -13.9663 -18.3691
rtoes -0.265081
lfemur 1.13635 -27.9263 -10.3019
ltibia -0.460404
lfoot -13.6164 40.4252
ltoes 0.101346
268
root -0.650715 17.7518 8.204 8.84859 -3.7409 -7.89822
lowerback 8.58347 7.98363 12.7725
upperback -9.72523 12.3541 -4.99583
thorax -11.8818 4.48616 -14.7146
lowerneck -17.1579 -7.15087 -2.51802
upperneck 23.9397 -9.08447 -0.955875
head 10.5873 -4.50431 -1.20264
rclavicle 4.80065e-014 1.59028e-015
rhumerus 55.4469 10.7028 -51.9706
rradius 25.7321
rwrist 12.8433
rhand 6.46477 -33.814
rfingers 7.12502
rthumb 31.7661 -61.0666
lclavicle 4.80065e-014 1.59028e-015
lhumerus -12.3753 -32.2472 50.2365
lradius 134.95
lwrist -328.223
lhand -10.5324 -25.6519
lfingers 7.12502
lthumb 15.4709 3.74906
rfemur -7.61359 20.3988 24.1416
rtibia 9.72799
rfoot -13.8857 -18.1296
rtoes -0.15584
lfemur 1.12194 -27.6063 -9.79974
ltibia -0.555292
lfoot -13.3947 40.2915
ltoes -0.335516
269
root -0.692728 17.7567 8.18463 8.68079 -3.43029 -8.38763
lowerback 8.84254 8.5888 13.38
upperback -9.67224 13.2673 -5.38887
thorax -11.4606 4.91728 -15.5735
lowerneck -17.5237 -7.78604 -2.83143
upperneck 24.135 -10.1329 -0.0541607
head 10.8091 -4.89051 -1.01279
rclavicle -4.35338e-014 4.77083e-015
rhumerus 59.6372 -12.1811 -91.8682
rradius 11.4121
rwrist 61.9142
rhand 4.55714 -28.4863
rfingers 7.12502
rthumb 29.9475 -56.0831
lclavicle -4.35338e-014 4.77083e-015
lhumerus -10.1643 -33.1535 48.384
lradius 134.593
lwrist -327.808
lhand -10.6986 -25.5067
lfingers 7.12502
lthumb 15.3109 3.90658
rfemur -7.43039 20.1786 24.9776
rtibia 9.77258
rfoot -13.816 -18.043
rtoes 0.0764497
lfemur 1.00395 -27.0116 -8.93073
ltibia -0.414034
lfoot -12.8695 39.694
ltoes -1.70872
270
root -0.738175 17.7588 8.16833 8.40125 -2.78124 -8.87622
lowerback 8.96859 8.93208 13.2848
upperback -9.52299 13.713 -5.48847
thorax -11.1933 5.1862 -15.6451
lowerneck -17.7095 -8.44255 -4.26971
upperneck 23.9874 -11.2391 2.13963
head 11.0508 -5.24388 -0.194691
rclavicle 2.18663e-014 -6.20208e-014
rhumerus 59.6541 -17.4506 -96.7189
rradius 11.5628
rwrist 63.7723
rhand 4.4053 -27.3498
rfingers 7.12502
rthumb 29.8026 -54.9727
lclavicle 2.18663e-014 -6.20208e-014
lhumerus -8.44939 -33.8167 46.8196
lradius 134.302
lwrist -328.864
lhand -11.5284 -25.7104
lfingers 7.12502
lthumb 14.5114 3.76209
rfemur -7.1006 19.7918 25.8713
rtibia 9.80754
rfoot -13.8913 -18.0911
rtoes 0.594086
lfemur 0.829524 -26.5059 -8.03017
ltibia -0.154607
lfoot -12.2286 38.9238
ltoes -3.28475
271
root -0.780085 17.7567 8.16026 8.14538 -1.76381 -9.2274
lowerback 8.4681 8.88051 12.2245
upperback -9.17401 13.4207 -5.02008
thorax -10.8942 5.21886 -14.3495
lowerneck -17.4872 -8.73609 -5.27035
upperneck 23.2211 -11.719 3.5447
head 10.9091 -5.39331 0.402725
rclavicle -1.23743e-013 2.70347e-014
rhumerus 51.483 -6.6759 -76.7978
rradius 17.043
rwrist 31.6636
rhand 2.5465 -28.3117
rfingers 7.12502
rthumb 28.0271 -56.2386
lclavicle -1.23743e-013 2.70347e-014
lhumerus -8.32854 -33.5896 46.4098
lradius 134.227
lwrist -329.838
lhand -12.4526 -26.2521
lfingers 7.12502
lthumb 13.6208 3.28226
rfemur -6.78977 19.0981 26.553
rtibia 9.78418
rfoot -14.0402 -18.2485
rtoes 0.824236
lfemur 0.540068 -26.4919 -7.27672
ltibia 0.0775385
lfoot -11.6745 38.2304
ltoes -4.3673
272
root -0.813644 17.7489 8.16541 8.00708 -0.31634 -9.35623
lowerback 8.43468 8.69902 11.1846
upperback -9.32088 13.0364 -4.89714
thorax -11.3959 5.06014 -13.6653
lowerneck -17.0023 -9.02185 -5.44538
upperneck 22.903 -12.2581 4.19861
head 10.7865 -5.59186 0.600045
rclavicle 1.20165e-013 -7.95139e-015
rhumerus 45.3309 8.77215 -54.7497
rradius 28.0407
rwrist 3.83513
rhand 1.38748 -36.585
rfingers 7.12502
rthumb 26.9187 -64.688
lclavicle 1.20165e-013 -7.95139e-015
lhumerus -9.22886 -34.2068 46.2044
lradius 134.749
lwrist -329.69
lhand -12.7378 -26.4263
lfingers 7.12502
lthumb 13.3459 3.12635
rfemur -6.55897 18.084 26.8856
rtibia 9.63465
rfoot -14.1751 -18.5896
rtoes 0.495561
lfemur -0.000283597 -27.0847 -6.75583
ltibia 0.324056
lfoot -11.2261 37.6748
ltoes -5.12843
273
root -0.838245 17.7303 8.18366 7.91239 1.50982 -9.46007
lowerback 7.7989 8.25714 9.86636
upperback -9.15012 12.2093 -4.36916
thorax -11.4091 4.80939 -12.16
lowerneck -16.9227 -9.05259 -5.60397
upperneck 22.7458 -12.2167 4.08211
head 10.7139 -5.60547 0.596699
rclavicle -6.40087e-014 1.59028e-015
rhumerus 42.1517 16.9139 -44.6079
rradius 38.3547
rwrist -0.271594
rhand 4.62817 -37.3166
rfingers 7.12502
rthumb 30.0152 -64.9011
lclavicle -6.40087e-014 1.59028e-015
lhumerus -11.5404 -34.1477 47.204
lradius 135.59
lwrist -329.171
lhand -12.2886 -26.3606
lfingers 7.12502
lthumb 13.7789 3.16311
rfemur -6.2741 16.9354 27.1761
rtibia 9.41946
rfoot -14.5427 -19.1481
rtoes 0.74941
lfemur -0.647707 -28.1802 -6.27168
ltibia 0.53609
lfoot -10.7206 37.2175
ltoes -6.05924
274
root -0.857712 17.7009 8.20598 7.71871 3.58953 -9.82162
lowerback 7.02172 7.66591 8.83618
upperback -8.87973 11.2504 -3.54536
thorax -11.215 4.50625 -10.438
lowerneck -16.3777 -8.95819 -6.23483
upperneck 22.3653 -11.8949 4.03013
head 10.4945 -5.53689 0.756746
rclavicle -7.22582e-014 -1.59028e-014
rhumerus 38.9458 21.7451 -39.5977
rradius 48.5742
rwrist -2.87083
rhand 5.47075 -39.5516
rfingers 7.12502
rthumb 30.8189 -66.9874
lclavicle -7.22582e-014 -1.59028e-014
lhumerus -14.6525 -33.6313 49.139
lradius 136.287
lwrist -328.76
lhand -11.0272 -26.3316
lfingers 7.12502
lthumb 14.9943 3.10552
rfemur -5.79858 15.9887 27.8514
rtibia 9.14819
rfoot -15.1567 -20.1485
rtoes 1.80861
lfemur -1.32955 -29.1459 -5.40141
ltibia 0.715601
lfoot -9.91127 36.3405
ltoes -7.68052
275
root -0.87759 17.6695 8.23114 7.34234 5.87458 -10.2183
lowerback 6.85009 7.1466 8.34696
upperback -8.79415 10.5023 -3.15147
thorax -11.3356 4.1964 -9.64352
lowerneck -15.4351 -9.07968 -6.612
upperneck 21.867 -12.0543 4.27792
head 10.1901 -5.64217 0.926174
rclavicle -8.17999e-014 -4.77083e-015
rhumerus 34.018 24.7221 -37.2741
rradius 60.315
rwrist -9.94529
rhand 2.46044 -43.9491
rfingers 7.12502
rthumb 27.9449 -71.8894
lclavicle -8.17999e-014 -4.77083e-015
lhumerus -17.101 -33.536 50.5243
lradius 136.738
lwrist -328.636
lhand -10.062 -26.2895
lfingers 7.12502
lthumb 15.9239 3.07586
rfemur -5.0052 15.373 28.7013
rtibia 8.63899
rfoot -15.7345 -21.7953
rtoes 2.79135
lfemur -2.08866 -29.3583 -4.36518
ltibia 0.992704
lfoot -8.91863 34.4445
ltoes -9.8485
